<?xml version="1.0" standalone="no"?>
<!DOCTYPE svg PUBLIC "-//W3C//DTD SVG 20010904//EN"
 "http://www.w3.org/TR/2001/REC-SVG-20010904/DTD/svg10.dtd">
<svg version="1.0" xmlns="http://www.w3.org/2000/svg"
 width="300.000000pt" height="300.000000pt" viewBox="0 0 300.000000 300.000000"
 preserveAspectRatio="xMidYMid meet">
<metadata>
Created by potrace 1.11, written by Peter Selinger 2001-2013
</metadata>
<g transform="translate(0.000000,300.000000) scale(0.100000,-0.100000)"
fill="#000000" stroke="none">
<path d="M1418 2865 c-2 -2 -30 -6 -63 -9 -120 -12 -141 -15 -185 -26 -60 -16
-234 -73 -240 -80 -3 -3 -18 -12 -35 -19 -240 -116 -483 -354 -612 -601 -52
-100 -95 -215 -108 -289 -3 -19 -8 -38 -10 -42 -5 -7 -11 -47 -24 -164 -9 -74
-6 -241 4 -309 16 -102 19 -115 35 -176 42 -164 137 -355 241 -484 79 -98 237
-242 341 -310 66 -43 228 -124 251 -125 1 0 34 -11 72 -24 39 -13 72 -24 75
-25 3 0 16 -3 30 -6 188 -42 447 -37 635 11 182 46 366 137 511 254 54 43 224
220 252 261 15 22 39 59 54 82 40 60 113 211 138 286 52 155 84 423 66 550 -3
19 -8 58 -12 85 -53 434 -367 852 -784 1043 -52 24 -155 62 -180 67 -3 1 -32
7 -65 14 -67 15 -81 17 -215 26 -153 11 -170 12 -172 10z"/>
</g>
</svg>
